<svg width="512" height="512" viewBox="0 0 512 512" fill="none" xmlns="http://www.w3.org/2000/svg">
  <!-- Globe -->
  <circle cx="256" cy="256" r="230" fill="#0F52BA"/>
  
  <!-- Continents -->
  <path d="M150 150C180 120 280 130 330 180C380 230 370 320 330 360C290 400 200 390 170 350C140 310 120 180 150 150Z" fill="#4ADE80"/>
  <path d="M170 390C190 370 240 380 260 400C280 420 260 440 220 440C180 440 150 410 170 390Z" fill="#4ADE80"/>
  
  <!-- Orbital Ring -->
  <ellipse cx="256" cy="256" rx="260" ry="100" stroke="#3B82F6" stroke-width="15" fill="none" transform="rotate(-30, 256, 256)"/>
  
  <!-- Graduation Cap -->
  <path d="M256 60L150 110L256 160L362 110L256 60Z" fill="#0A2463"/>
  <path d="M200 120L200 190" stroke="#0A2463" stroke-width="10" stroke-linecap="round"/>
  <path d="M256 60L150 110L256 160L362 110L256 60Z" stroke="#3B82F6" stroke-width="5"/>
  <path d="M212 120L200 140L220 140L212 120Z" fill="#3B82F6"/>
  
  <!-- Airplane -->
  <path d="M380 120L330 170L380 190L430 170L380 120Z" fill="white" stroke="#0A2463" stroke-width="2"/>
</svg>
